<?xml version="1.0" encoding="UTF-8"?>
<svg id="Layer_1" data-name="Layer 1" xmlns="http://www.w3.org/2000/svg" xmlns:xlink="http://www.w3.org/1999/xlink" viewBox="0 0 169 195.47">
  <defs>
    <style>
      .cls-1, .cls-2, .cls-3, .cls-4, .cls-5, .cls-6, .cls-7, .cls-8, .cls-9, .cls-10, .cls-11, .cls-12, .cls-13, .cls-14, .cls-15, .cls-16 {
        fill: none;
      }

      .cls-2 {
        opacity: .35;
      }

      .cls-2, .cls-3 {
        stroke-width: .5px;
      }

      .cls-2, .cls-17, .cls-4, .cls-5, .cls-6, .cls-7, .cls-8, .cls-9, .cls-10, .cls-12, .cls-13, .cls-14, .cls-15, .cls-16 {
        isolation: isolate;
      }

      .cls-2, .cls-4, .cls-9, .cls-10 {
        stroke: #d4b896;
      }

      .cls-18 {
        fill: url(#linear-gradient);
      }

      .cls-3, .cls-19, .cls-8 {
        stroke: #2a6ea0;
      }

      .cls-17 {
        fill: #6b4410;
        font-family: Arial-BoldMT, Arial;
        font-size: 16px;
        font-weight: 700;
        opacity: .7;
      }

      .cls-4 {
        opacity: .45;
      }

      .cls-4, .cls-19, .cls-20 {
        stroke-width: .7px;
      }

      .cls-19 {
        fill: url(#linear-gradient-9);
      }

      .cls-5 {
        stroke: url(#linear-gradient-3);
      }

      .cls-5, .cls-6, .cls-7 {
        stroke-width: 3.5px;
      }

      .cls-5, .cls-6, .cls-7, .cls-9, .cls-13 {
        opacity: .5;
      }

      .cls-5, .cls-6, .cls-7, .cls-11, .cls-12, .cls-14, .cls-15, .cls-16 {
        stroke-linecap: round;
        stroke-linejoin: round;
      }

      .cls-6 {
        stroke: url(#linear-gradient-7);
      }

      .cls-7 {
        stroke: url(#linear-gradient-5);
      }

      .cls-20 {
        fill: url(#linear-gradient-8);
        stroke: #777;
      }

      .cls-8 {
        opacity: .6;
        stroke-width: .4px;
      }

      .cls-21, .cls-10 {
        opacity: .4;
      }

      .cls-22 {
        fill: url(#woodGrain);
        stroke: #c4a060;
        stroke-width: 3px;
      }

      .cls-9, .cls-11 {
        stroke-width: .8px;
      }

      .cls-10 {
        stroke-width: .6px;
      }

      .cls-11 {
        stroke: #f8e8c8;
      }

      .cls-12 {
        opacity: .9;
        stroke: #3d2800;
        stroke-width: 1.2px;
      }

      .cls-13 {
        stroke: #a08040;
      }

      .cls-14 {
        stroke: url(#linear-gradient-4);
      }

      .cls-14, .cls-15, .cls-16 {
        opacity: .3;
        stroke-width: 6px;
      }

      .cls-15 {
        stroke: url(#linear-gradient-2);
      }

      .cls-16 {
        stroke: url(#linear-gradient-6);
      }
    </style>
    <linearGradient id="linear-gradient" x1="7854.82" y1="-8450.95" x2="7855.12" y2="-8449.95" gradientTransform="translate(-1570899.07 -1689970.11) scale(200 -200)" gradientUnits="userSpaceOnUse">
      <stop offset="0" stop-color="wheat"/>
      <stop offset=".25" stop-color="#e8d09a"/>
      <stop offset=".5" stop-color="wheat"/>
      <stop offset=".75" stop-color="#e0c88e"/>
      <stop offset="1" stop-color="wheat"/>
    </linearGradient>
    <pattern id="woodGrain" x="0" y="0" width="200" height="200" patternTransform="translate(181.5 -15421.6) scale(1 -1)" patternUnits="userSpaceOnUse" viewBox="0 0 200 200">
      <g>
        <rect class="cls-1" width="200" height="200"/>
        <rect class="cls-18" width="200" height="200"/>
        <path class="cls-9" d="M0,185c33.33,2,66.67,1.67,100-1,33.33-2.67,66.67-2,100,2"/>
        <path class="cls-10" d="M0,165c40,2.67,80,2,120-2,33.33-2.67,60-1.33,80,4"/>
        <path class="cls-4" d="M0,142c26.67,2.67,56.67,2,90-2,33.33-2.67,70-1.33,110,4"/>
        <path class="cls-2" d="M0,122c46.67,3.33,90,2.67,130-2,20-2,43.33-.67,70,4"/>
        <path class="cls-9" d="M0,100c33.33,2.67,66.67,2,100-2,33.33-2.67,66.67-1.33,100,4"/>
        <path class="cls-10" d="M0,82c40,2.67,76.67,2,110-2,33.33-2.67,63.33-1.33,90,4"/>
        <path class="cls-4" d="M0,60c30,2.67,61.67,2,95-2,33.33-2.67,68.33-1.33,105,4"/>
        <path class="cls-2" d="M0,40c36.67,2.67,71.67,2,105-2,33.33-2.67,65-1.33,95,4"/>
        <path class="cls-10" d="M0,20c43.33,2.67,81.67,2,115-2,33.33-2.67,61.67-1.33,85,4"/>
      </g>
    </pattern>
    <linearGradient id="linear-gradient-2" x1="-206.82" y1="511.94" x2="-206.82" y2="510.94" gradientTransform="translate(7896.5 24646.62) scale(38 -48)" gradientUnits="userSpaceOnUse">
      <stop offset="0" stop-color="#8b6914"/>
      <stop offset=".5" stop-color="#5c4410"/>
      <stop offset="1" stop-color="#8b6914"/>
    </linearGradient>
    <linearGradient id="linear-gradient-3" x1="-206.82" y1="511.94" x2="-206.82" y2="510.94" gradientTransform="translate(7896.5 24646.62) scale(38 -48)" gradientUnits="userSpaceOnUse">
      <stop offset="0" stop-color="#8b6914"/>
      <stop offset=".5" stop-color="#5c4410"/>
      <stop offset="1" stop-color="#8b6914"/>
    </linearGradient>
    <linearGradient id="linear-gradient-4" x1="-204.96" y1="511.94" x2="-204.96" y2="510.94" gradientTransform="translate(5823.5 24646.62) scale(28 -48)" gradientUnits="userSpaceOnUse">
      <stop offset="0" stop-color="#8b6914"/>
      <stop offset=".5" stop-color="#5c4410"/>
      <stop offset="1" stop-color="#8b6914"/>
    </linearGradient>
    <linearGradient id="linear-gradient-5" x1="-204.96" y1="511.94" x2="-204.96" y2="510.94" gradientTransform="translate(5823.5 24646.62) scale(28 -48)" gradientUnits="userSpaceOnUse">
      <stop offset="0" stop-color="#8b6914"/>
      <stop offset=".5" stop-color="#5c4410"/>
      <stop offset="1" stop-color="#8b6914"/>
    </linearGradient>
    <linearGradient id="linear-gradient-6" x1="-204.96" y1="511.94" x2="-204.96" y2="510.94" gradientTransform="translate(5865.5 24646.62) scale(28 -48)" gradientUnits="userSpaceOnUse">
      <stop offset="0" stop-color="#8b6914"/>
      <stop offset=".5" stop-color="#5c4410"/>
      <stop offset="1" stop-color="#8b6914"/>
    </linearGradient>
    <linearGradient id="linear-gradient-7" x1="-204.96" y1="511.94" x2="-204.96" y2="510.94" gradientTransform="translate(5865.5 24646.62) scale(28 -48)" gradientUnits="userSpaceOnUse">
      <stop offset="0" stop-color="#8b6914"/>
      <stop offset=".5" stop-color="#5c4410"/>
      <stop offset="1" stop-color="#8b6914"/>
    </linearGradient>
    <linearGradient id="linear-gradient-8" x1="-192.8" y1="506.98" x2="-191.8" y2="506.98" gradientTransform="translate(2007.5 14248.17) scale(10 -28)" gradientUnits="userSpaceOnUse">
      <stop offset="0" stop-color="#999"/>
      <stop offset=".5" stop-color="#ccc"/>
      <stop offset="1" stop-color="#999"/>
    </linearGradient>
    <linearGradient id="linear-gradient-9" x1="-202.56" y1="509.43" x2="-201.74" y2="509.43" gradientTransform="translate(4127.5 18419.15) scale(20 -36)" gradientUnits="userSpaceOnUse">
      <stop offset="0" stop-color="#3a8ac0"/>
      <stop offset=".5" stop-color="#5aade0"/>
      <stop offset="1" stop-color="#3a8ac0"/>
    </linearGradient>
  </defs>
  <polygon class="cls-22" points="84.5 1.73 167.5 49.73 167.5 145.73 84.5 193.73 1.5 145.73 1.5 49.73 84.5 1.73"/>
  <polygon class="cls-13" points="84.5 1.73 167.5 49.73 167.5 145.73 84.5 193.73 1.5 145.73 1.5 49.73 84.5 1.73"/>
  <g>
    <path class="cls-15" d="M52.5,73.73h-20c-10,0-14,6-14,12s4,12,14,12h10c10,0,14,6,14,12s-4,12-14,12h-20"/>
    <path class="cls-5" d="M52.5,73.73h-20c-10,0-14,6-14,12s4,12,14,12h10c10,0,14,6,14,12s-4,12-14,12h-20"/>
    <path class="cls-12" d="M52.5,73.73h-20c-10,0-14,6-14,12s4,12,14,12h10c10,0,14,6,14,12s-4,12-14,12h-20"/>
    <path class="cls-14" d="M70.5,73.73l14,48,14-48"/>
    <path class="cls-7" d="M70.5,73.73l14,48,14-48"/>
    <path class="cls-12" d="M70.5,73.73l14,48,14-48"/>
    <path class="cls-16" d="M140.5,73.73c-14,0-28,8-28,24s14,24,28,24v-20h-10"/>
    <path class="cls-6" d="M140.5,73.73c-14,0-28,8-28,24s14,24,28,24v-20h-10"/>
    <path class="cls-12" d="M140.5,73.73c-14,0-28,8-28,24s14,24,28,24v-20h-10"/>
  </g>
  <g class="cls-21">
    <path class="cls-11" d="M52.5,72.73h-20c-11,0-15,6-15,12s4,12,14,12h10c10,0,14,6,14,12s-4,12-14,12h-19"/>
    <path class="cls-11" d="M69.5,72.73l14,48,14-48"/>
    <path class="cls-11" d="M140.5,72.73c-15,0-29,8-29,24s14,24,28,24v-20h-10"/>
  </g>
  <rect class="cls-20" x="79.5" y="38.79" width="10" height="28" rx="1.5" ry="1.5"/>
  <path class="cls-19" d="M80.21,67.38h8.57c.45,0,.88-.2,1.17-.55h0c1.05-1.26,3.08-.2,2.64,1.39l-6.63,23.87c-.41,1.49-2.53,1.49-2.94,0l-6.63-23.87c-.44-1.58,1.59-2.65,2.64-1.39h0c.29.35.72.55,1.17.55Z"/>
  <line class="cls-3" x1="77.87" y1="68" x2="85.87" y2="90"/>
  <line class="cls-3" x1="91.17" y1="69.56" x2="83.17" y2="91.56"/>
  <line class="cls-8" x1="81.69" y1="71.17" x2="87.69" y2="85.17"/>
  <line class="cls-8" x1="88.27" y1="71.12" x2="82.27" y2="85.12"/>
  <text class="cls-17" transform="translate(52.05 159.73)"><tspan x="0" y="0">toGcode</tspan></text>
</svg>